<svg width="24" height="24" viewBox="0 0 24 24" fill="none" xmlns="http://www.w3.org/2000/svg">
<path fill-rule="evenodd" clip-rule="evenodd" d="M5.86357 5C5.86357 3.89543 6.75901 3 7.86357 3H16.1364C17.241 3 18.1364 3.89543 18.1364 5V8.21428C18.1474 8.58746 18.1441 9.03111 18.1405 9.52256C18.1385 9.78709 18.1364 10.0655 18.1364 10.3542C18.1364 13.7467 15.3908 16.5 12 16.5C8.60922 16.5 5.86358 13.7467 5.86358 10.3542C5.86358 10.0655 5.8615 9.78708 5.85954 9.52255C5.85588 9.03112 5.85258 8.58749 5.86357 8.21433V5ZM16.1364 5H7.86357V8.22937V8.24472L7.8631 8.26007C7.85265 8.6005 7.8556 8.98413 7.85919 9.45C7.86127 9.721 7.86358 10.0198 7.86358 10.3542C7.86358 12.6456 9.71724 14.5 12 14.5C14.2828 14.5 16.1364 12.6456 16.1364 10.3542C16.1364 10.0198 16.1387 9.721 16.1408 9.44999C16.1444 8.9841 16.1474 8.60045 16.1369 8.26001L16.1364 8.24466V8.22931L16.1364 5Z" fill="#b65400"/>
<path d="M7 12C5.89543 12 4 10.5 4 8C4 6 4.89543 6 6 6" stroke="#b65400" stroke-width="2"/>
<path d="M17 12C18.1046 12 20 10.5 20 8C20 6 19.1046 6 18 6" stroke="#b65400" stroke-width="2"/>
<path d="M12.75 16H13.75V15H12.75V16ZM12.75 19H11.75V20H12.75V19ZM11.25 16V15H10.25V16H11.25ZM11.25 19V20H12.25V19H11.25ZM8.70711 19.2929L9.41421 20L9.41421 20L8.70711 19.2929ZM8 20L7.29289 19.2929L5.58579 21H8V20ZM16 20V21H18.4142L16.7071 19.2929L16 20ZM15.2929 19.2929L16 18.5858L16 18.5858L15.2929 19.2929ZM11.75 16V19H13.75V16H11.75ZM11.25 17H12.75V15H11.25V17ZM12.25 19V16H10.25V19H12.25ZM9.41421 20H11.25V18H9.41421V20ZM9.41421 20L9.41421 20V18C8.88378 18 8.37507 18.2107 8 18.5858L9.41421 20ZM8.70711 20.7071L9.41421 20L8 18.5858L7.29289 19.2929L8.70711 20.7071ZM16 19H8V21H16V19ZM14.5858 20L15.2929 20.7071L16.7071 19.2929L16 18.5858L14.5858 20ZM14.5858 20L14.5858 20L16 18.5858C15.6249 18.2107 15.1162 18 14.5858 18V20ZM12.75 20H14.5858V18H12.75V20Z" fill="#b65400"/>
<path fill-rule="evenodd" clip-rule="evenodd" d="M14.2932 8.34224C14.4822 8.14092 14.4722 7.82449 14.2709 7.63548C14.0696 7.44647 13.7532 7.45645 13.5642 7.65777L11.2618 10.1101L10.3356 9.27132C10.131 9.08595 9.81477 9.10161 9.6294 9.30629C9.44403 9.51097 9.45969 9.82716 9.66437 10.0125L10.9451 11.1724C10.946 11.1732 10.9469 11.1741 10.9478 11.175C11.1491 11.364 11.4656 11.354 11.6546 11.1527L14.2932 8.34224Z" fill="#b65400"/>
</svg>
