<?xml version="1.0" encoding="utf-8"?>
<!-- Generator: Adobe Illustrator 23.0.0, SVG Export Plug-In . SVG Version: 6.00 Build 0)  -->
<svg version="1.1" id="圖層_1" xmlns="http://www.w3.org/2000/svg" xmlns:xlink="http://www.w3.org/1999/xlink" x="0px" y="0px"
	 viewBox="0 0 27.5 24.2" style="enable-background:new 0 0 27.5 24.2;" xml:space="preserve">
<style type="text/css">
	.st0{fill:#FFBB37;}
	.st1{fill:#E95520;}
</style>
<title>icon</title>
<desc>Created with Sketch.</desc>
<g>
	<path class="st0" d="M17.1,0c-0.7,0-1.3,0.1-2,0.2c1,0.5,1.9,1.2,2.8,2c2.1,2.1,3.3,4.9,3.4,7.8c0.1,4.1-1.8,8.2-5,11.2
		c0.2,0.2,0.3,0.4,0.5,0.6c0.6,1.2-0.1,1.7,0.3,2.2c0.6,0.9,4.4-2.4,5.5-3.4c2.9-2.7,4.9-6.6,4.8-10.6C27.4,4.4,22.8-0.1,17.1,0z"/>
	<path class="st1" d="M20.4,10.1c0.1,4-1.9,7.9-4.8,10.6c-1.1,1-4.9,4.2-5.5,3.4c-0.4-0.6,0.3-1.1-0.3-2.2c-0.7-1.2-2.3-1.6-3.3-2.1
		C4,18.5,0.1,16.1,0,10.3C-0.1,4.7,4.4,0.1,10,0C15.7-0.1,20.3,4.4,20.4,10.1z"/>
</g>
</svg>
