<svg width="24" height="24" viewBox="0 0 24 24" fill="none" xmlns="http://www.w3.org/2000/svg">
<path d="M7 8.46667V9.46667H7.33135L7.59714 9.2688L7 8.46667ZM11.4029 5.18899L12 5.99112V5.99112L11.4029 5.18899ZM4 8.46667L4 7.46667H4V8.46667ZM7 15.8L7.65493 15.0443L7.37303 14.8H7V15.8ZM11.3451 19.5657L10.6901 20.3214L10.6901 20.3214L11.3451 19.5657ZM7.59714 9.2688L12 5.99112L10.8057 4.38685L6.40286 7.66453L7.59714 9.2688ZM4 9.46667L7 9.46667V7.46667L4 7.46667L4 9.46667ZM4 9.46667V9.46667V7.46667C2.89543 7.46667 2 8.3621 2 9.46667H4ZM4 14.8V9.46667H2V14.8H4ZM4 14.8H4H2C2 15.9046 2.89543 16.8 4 16.8V14.8ZM7 14.8H4V16.8H7V14.8ZM12 18.81L7.65493 15.0443L6.34507 16.5557L10.6901 20.3214L12 18.81ZM12 18.81H12L10.6901 20.3214C11.9853 21.4439 14 20.5239 14 18.81H12ZM12 5.99112V18.81H14V5.99112H12ZM12 5.99112L12 5.99112H14C14 4.34631 12.1251 3.40467 10.8057 4.38685L12 5.99112Z" fill="#ef8200"/>
<path d="M15 15C16.6569 15 18 13.6569 18 12C18 10.3431 16.6569 9 15 9" stroke="#ef8200" stroke-width="2"/>
<path d="M15 18C18.3137 18 21 15.3137 21 12C21 8.68629 18.3137 6 15 6" stroke="#ef8200" stroke-width="2"/>
<path d="M5 13.5H7" stroke="#ef8200" stroke-linecap="round"/>
</svg>
